<svg height="682.667" viewBox="0 0 512 512" width="682.667" xmlns="http://www.w3.org/2000/svg"><path d="m282.8 162.1c-22.8 3.3-46.5 13.3-65.4 27.5-9.7 7.3-25.7 24.2-32.2 33.9-6.1 9.1-14 25-17.1 34.2-4.7 14-6.3 24.3-6.9 42-.5 18.9.8 29.8 5.4 46.1 3.2 11 12.5 30.4 19.5 40.4 28.5 40.6 75.3 63.8 124.4 61.5 74.8-3.5 133.7-62.4 137.2-137.2 3.4-72.5-47.8-135.6-120.1-148-9.6-1.6-34.9-1.9-44.8-.4zm39.6 70.9c12.8 3.3 22.8 9.1 33.2 19.5 7.7 7.6 9.8 10.5 13.7 18.5 2.6 5.2 5.4 12.4 6.4 16 2.2 8.6 2.2 25.3 0 34.3-5.2 21.2-19.8 39.3-39.2 48.7-11 5.4-19.8 7.4-32.5 7.3-12.9 0-20.4-1.8-33-8-8-3.9-10.9-6-18.5-13.7-15-15.1-21.5-30.6-21.5-51.4 0-12.8 1.8-20.9 7.1-31.7 9.3-19.2 27.1-34 47.4-39.5 9.8-2.6 26.6-2.6 36.9 0z"/></svg>