<svg height="512" viewBox="0 0 512 512" width="512" xmlns="http://www.w3.org/2000/svg"><g fill-rule="evenodd"><path d="m370.274 52.349c-176.29 0-319.2 142.912-319.2 319.2a322.3 322.3 0 0 0 2.5 40.112 254.228 254.228 0 0 1 -52.936-155.661c0-141.032 114.33-255.362 255.362-255.362a254.263 254.263 0 0 1 157.945 54.7 321.924 321.924 0 0 0 -43.671-2.989z" fill="#f58d06"/><path d="m140.449 460.928c176.29 0 319.2-142.912 319.2-319.2a321.948 321.948 0 0 0 -2.987-43.671 254.265 254.265 0 0 1 54.7 157.943c0 141.032-114.33 255.362-255.362 255.362a254.228 254.228 0 0 1 -155.663-52.937 322.206 322.206 0 0 0 40.112 2.503z" fill="#aec5ff"/><path d="m51.072 141.726c0 176.29 142.912 319.2 319.2 319.2a322.306 322.306 0 0 0 41.652-2.7 254.232 254.232 0 0 1 -155.924 53.136c-141.032 0-255.362-114.33-255.362-255.362a254.232 254.232 0 0 1 53.138-155.926 322.152 322.152 0 0 0 -2.704 41.652z" fill="#57cfff"/><path d="m72.4 256.638a318.4 318.4 0 0 0 -21.328 114.913 322.3 322.3 0 0 0 2.5 40.112 255.339 255.339 0 0 1 .2-311.589 322.152 322.152 0 0 0 -2.7 41.652 318.39 318.39 0 0 0 21.328 114.912z" fill="#787a1b"/><path d="m140.449 460.928a318.41 318.41 0 0 0 114.913-21.328 318.4 318.4 0 0 0 114.912 21.331 322.306 322.306 0 0 0 41.652-2.7 255.338 255.338 0 0 1 -311.589.2 322.206 322.206 0 0 0 40.112 2.497z" fill="#2bbcff"/><path d="m456.88 413.677a322.048 322.048 0 0 0 2.771-42.126c0-176.29-142.912-319.2-319.2-319.2a322.1 322.1 0 0 0 -42.126 2.77 254.269 254.269 0 0 1 157.675-54.483c141.032 0 255.362 114.33 255.362 255.362a254.267 254.267 0 0 1 -54.482 157.677z" fill="#b8f7ff"/><path d="m456.88 413.677a322.048 322.048 0 0 0 2.771-42.126 318.389 318.389 0 0 0 -21.331-114.913 318.379 318.379 0 0 0 21.331-114.912 321.948 321.948 0 0 0 -2.987-43.671 255.4 255.4 0 0 1 .216 315.622z" fill="#b1d8ff"/><path d="m370.274 52.349a318.391 318.391 0 0 0 -114.9 21.325 318.37 318.37 0 0 0 -114.925-21.325 322.1 322.1 0 0 0 -42.126 2.77 255.348 255.348 0 0 1 315.577.21 321.947 321.947 0 0 0 -43.626-2.98z" fill="#ffe808"/><path d="m197.906 244.8a56.716 56.716 0 0 0 14.719 38.176h-.125l42.862 42.62 42.863-42.62h-.13a57.3 57.3 0 1 0 -100.189-38.176z" fill="#e41c16"/></g></svg>