<svg width="312" height="151" xmlns="http://www.w3.org/2000/svg"><g fill="none" fill-rule="evenodd"><path d="M263.912 61.364c13.43 0 24.355 10.926 24.355 24.356 0 13.43-10.925 24.354-24.355 24.354S239.557 99.15 239.557 85.72s10.925-24.356 24.355-24.356m0 71.978a47.317 47.317 0 0 0 24.355-6.72v7.396h23.267V.38h-23.267v44.437a47.317 47.317 0 0 0-24.355-6.72c-26.26 0-47.623 21.364-47.623 47.623 0 26.26 21.364 47.622 47.623 47.622M147.616 117.18a24.206 24.206 0 0 1-4.54-14.133c0-3.372.69-6.585 1.934-9.508a24.22 24.22 0 0 1-9.507 1.933 24.214 24.214 0 0 1-14.135-4.54 47.716 47.716 0 0 0-1.559 12.114c0 4.76.707 9.351 2.006 13.687a47.586 47.586 0 0 0 13.688 2.007 47.67 47.67 0 0 0 12.113-1.56m19.815-61.756c4.76 0 9.352.706 13.688 2.006a47.613 47.613 0 0 1 2.006 13.687c0 4.187-.545 8.245-1.559 12.113a24.217 24.217 0 0 0-14.134-4.539c-3.37 0-6.585.69-9.507 1.933a24.216 24.216 0 0 0 1.933-9.507 24.211 24.211 0 0 0-4.54-14.134 47.664 47.664 0 0 1 12.113-1.559" fill="#46585E"/><path fill="#46585E" d="M86.6457 40.1422L72.9047 40.1422 0.4657 40.1422 0.4657 62.6712 0.4657 63.4092 47.5617 63.4092 0.4657 121.8152 0.4657 134.0192 14.2077 134.0192 86.6457 134.0192 86.6457 111.4872 86.6457 110.7512 39.5487 110.7512 86.6457 52.3462z"/><path d="M157.925 80.623a24.211 24.211 0 0 0 1.933-9.506 24.212 24.212 0 0 0-4.54-14.135c-16.565 4.345-29.605 17.385-33.95 33.95a24.224 24.224 0 0 0 14.136 4.54c3.37 0 6.584-.69 9.506-1.933a24.502 24.502 0 0 1 12.916-12.916" fill="#E41C16"/><path d="M181.12 57.429a47.62 47.62 0 0 1 2.005 13.688c0 4.186-.545 8.245-1.559 12.113 6.181 4.422 10.221 11.654 10.221 19.816 0 13.43-10.925 24.355-24.355 24.355-8.162 0-15.395-4.04-19.816-10.222a47.67 47.67 0 0 1-12.113 1.56c-4.759 0-9.35-.707-13.688-2.006 5.882 19.628 24.075 33.935 45.616 33.935 26.302 0 47.623-21.322 47.623-47.623 0-21.542-14.307-39.734-33.935-45.616" fill="#E41C16"/><path d="M145.01 93.539a24.22 24.22 0 0 0-1.933 9.507 24.217 24.217 0 0 0 4.539 14.134c16.565-4.345 29.605-17.385 33.95-33.95a24.209 24.209 0 0 0-14.134-4.54c-3.371 0-6.584.69-9.506 1.933a24.499 24.499 0 0 1-12.916 12.916m-25.2 9.506c0-4.187.544-8.245 1.56-12.113-6.183-4.422-10.223-11.653-10.223-19.815 0-13.43 10.927-24.356 24.356-24.356 8.162 0 15.394 4.04 19.815 10.221a47.671 47.671 0 0 1 12.114-1.559c4.76 0 9.351.706 13.687 2.006-5.88-19.628-24.074-33.935-45.616-33.935-26.3 0-47.623 21.321-47.623 47.622 0 21.542 14.308 39.735 33.935 45.617a47.62 47.62 0 0 1-2.006-13.688" fill="#5CD1FF"/></g></svg>